<svg version="1.1" id="Layer_1" xmlns="http://www.w3.org/2000/svg" xmlns:xlink="http://www.w3.org/1999/xlink" x="0px" y="0px"
	 width="100%" viewBox="0 0 2000 1500" enable-background="new 0 0 2000 1500" xml:space="preserve">
<path fill="#FFFFFF" opacity="1.000000" stroke="none" 
	d="
M1092.000000,1501.000000 
	C728.000122,1501.000000 364.500214,1501.000000 1.000244,1501.000000 
	C1.000163,1001.000244 1.000163,501.000519 1.000081,1.000579 
	C667.666199,1.000386 1334.332397,1.000386 2000.999023,1.000193 
	C2000.999268,500.999390 2000.999268,1000.998779 2000.999634,1500.999023 
	C1698.166626,1501.000000 1395.333374,1501.000000 1092.000000,1501.000000 
M675.164429,726.241760 
	C695.358582,710.068970 718.470825,705.355591 743.690552,708.623047 
	C767.166504,711.664429 789.113586,719.897583 810.973938,728.353699 
	C841.646118,740.218567 871.919189,753.169983 903.816345,761.615356 
	C940.353333,771.289185 977.117371,774.388123 1014.402649,766.067688 
	C1051.891846,757.701660 1084.560791,739.752136 1114.301636,716.041565 
	C1122.180908,709.759827 1129.422974,702.678711 1137.476196,695.939209 
	C1137.501831,695.748230 1137.527344,695.557312 1137.552979,695.366333 
	C1137.438110,695.367004 1137.236816,695.335693 1137.222778,695.373596 
	C1137.142334,695.591003 1137.106445,695.824951 1136.311157,695.882141 
	C1135.694946,696.122070 1135.056152,696.316528 1134.465576,696.608459 
	C1099.229004,714.022034 1061.813965,722.301636 1022.655396,722.825989 
	C982.720276,723.360779 943.804749,716.206543 905.334534,706.267700 
	C872.654602,697.824890 840.128540,688.775330 807.380310,680.612488 
	C784.513855,674.912781 761.239014,671.483459 737.609253,675.078979 
	C706.739685,679.776245 686.472351,698.100647 673.373169,726.112488 
	C673.345276,726.518555 673.317383,726.924683 673.289490,727.330688 
	C673.724365,727.085632 674.159302,726.840515 675.164429,726.241760 
M1263.859619,565.730957 
	C1249.766113,572.859009 1235.975952,580.681274 1221.526611,586.995239 
	C1158.386841,614.585571 1091.719849,622.849060 1023.690063,619.315002 
	C971.338684,616.595398 919.163025,610.591309 866.880615,606.404602 
	C838.962341,604.168945 810.980286,602.955261 783.178589,608.028992 
	C759.633728,612.325806 738.577454,621.512390 722.735168,640.191650 
	C718.244995,645.485901 714.565552,651.467773 710.514282,657.134277 
	C712.161499,657.862061 712.807739,657.800293 713.403381,657.593018 
	C735.953918,649.744019 759.269409,646.504883 783.042358,645.982788 
	C817.873352,645.217773 852.101501,650.410889 886.226807,656.500977 
	C932.895325,664.829590 979.158447,675.606262 1026.559082,679.480652 
	C1051.387085,681.510071 1076.157349,681.358582 1100.819824,677.592468 
	C1150.998779,669.929932 1193.637451,647.387024 1228.499756,610.807373 
	C1241.750854,596.903503 1252.963135,581.056702 1265.588623,565.905823 
	C1265.585327,565.674438 1265.582031,565.443054 1265.578735,565.211609 
	C1265.225708,565.308044 1264.872803,565.404419 1263.859619,565.730957 
M1306.110962,489.887024 
	C1299.897095,492.248505 1293.736572,494.763062 1287.460938,496.946808 
	C1243.535156,512.231689 1197.917969,517.726379 1151.823608,517.503540 
	C1108.383301,517.293579 1064.953613,514.499268 1021.523621,512.734741 
	C983.586731,511.193268 945.669312,508.864014 907.718445,508.069733 
	C874.317566,507.370667 841.191711,510.687897 809.115906,520.978088 
	C769.010193,533.844360 739.103027,558.466431 721.513367,597.217529 
	C720.901611,598.565369 720.429321,599.976562 719.793335,601.612122 
	C728.623901,597.571777 736.640320,593.477783 744.968445,590.167969 
	C779.071594,576.614807 814.930359,571.817810 851.188843,572.435730 
	C892.122742,573.133301 933.045715,575.766052 973.918518,578.406860 
	C1016.649231,581.167786 1059.318359,584.503540 1102.194702,582.148987 
	C1134.752197,580.361023 1166.731445,575.542114 1197.683472,564.977478 
	C1241.056519,550.173340 1277.774170,525.510498 1307.913086,490.258820 
	C1308.032959,489.935547 1308.152954,489.612305 1308.272949,489.289062 
	C1307.801392,489.472382 1307.329956,489.655670 1306.110962,489.887024 
M1363.442871,417.934052 
	C1368.081421,410.945343 1372.719849,403.956604 1377.900146,396.151520 
	C1357.056641,395.527740 1337.759155,394.751740 1318.453979,394.407501 
	C1242.449341,393.052277 1166.486450,393.774445 1090.740479,400.978363 
	C1062.580200,403.656586 1034.466309,406.976318 1006.424622,410.706055 
	C970.753906,415.450500 935.802429,423.887329 901.049072,433.047760 
	C847.535095,447.153107 795.320740,464.783173 746.202759,490.760162 
	C715.371948,507.065643 687.420837,527.292419 662.080383,551.209045 
	C654.136902,558.706238 649.146851,567.628418 648.163757,578.606445 
	C647.747803,583.252075 647.347107,587.903870 647.127197,592.561707 
	C645.616028,624.570740 640.996399,656.162231 634.370117,687.478027 
	C631.453918,701.259949 628.319580,714.995789 625.061768,729.761353 
	C631.268311,726.147644 636.790039,723.139099 642.105164,719.801514 
	C663.170410,706.573669 680.526917,690.047119 689.229370,665.982605 
	C694.956116,650.146790 695.557617,633.395142 698.086365,616.972656 
	C700.613037,600.564270 703.302551,584.129517 707.160156,568.002808 
	C708.705688,561.541321 712.538696,554.891357 717.154541,550.075439 
	C723.775146,543.167725 731.934631,537.685242 739.665161,531.898926 
	C788.891357,495.053131 844.026672,475.151367 905.761292,474.961700 
	C929.245422,474.889557 952.735596,475.747894 976.217590,476.384094 
	C991.360474,476.794342 1006.566223,476.833832 1021.617676,478.318207 
	C1073.889648,483.473267 1126.204956,487.125183 1178.762573,484.938232 
	C1215.127563,483.425079 1251.140869,479.306641 1285.937988,467.931824 
	C1315.872925,458.146362 1342.821045,443.556458 1363.442871,417.934052 
M1016.500122,836.068787 
	C1009.567810,836.068787 1002.635498,836.068787 995.087402,836.068787 
	C995.934082,899.305420 996.771790,961.871826 997.603455,1023.989441 
	C997.047913,1023.187561 996.086975,1021.850830 995.177002,1020.480164 
	C956.955627,962.908325 918.483887,905.499390 880.775574,847.593323 
	C874.583252,838.084167 868.271362,833.537537 856.950317,835.051025 
	C849.813660,836.005127 842.445679,835.229065 835.180359,835.229065 
	C835.180359,926.414490 835.180359,1016.857117 835.180359,1107.395142 
	C851.110229,1107.395142 866.791321,1107.395142 882.988892,1107.395142 
	C880.704346,1042.831299 883.996094,978.625183 879.133118,914.468506 
	C880.583130,915.848389 881.594543,917.306641 882.545654,918.803284 
	C900.406311,946.908142 918.210205,975.049133 936.127441,1003.117859 
	C957.718201,1036.941650 979.386353,1070.716187 1001.107117,1104.456543 
	C1002.064331,1105.943359 1003.856567,1107.881470 1005.297180,1107.913086 
	C1017.739014,1108.186646 1030.189453,1108.070557 1042.745361,1108.070557 
	C1042.745361,1017.173523 1042.745361,926.793518 1042.745361,836.068848 
	C1034.109985,836.068848 1025.804932,836.068848 1016.500122,836.068787 
M1419.606812,1050.947754 
	C1427.418091,1068.584473 1435.187012,1086.240234 1443.113037,1103.825195 
	C1443.819824,1105.393311 1445.529053,1107.631958 1446.803101,1107.652222 
	C1463.082153,1107.911987 1479.366699,1107.823486 1495.956299,1107.823486 
	C1495.772827,1106.763184 1495.786011,1106.092896 1495.541626,1105.535400 
	C1483.526733,1078.128296 1471.973999,1050.503784 1459.283936,1023.412415 
	C1450.919556,1005.555725 1440.372681,988.899780 1423.196777,977.749939 
	C1423.024536,977.638184 1423.072998,977.186401 1422.962769,976.593323 
	C1424.432251,976.056885 1425.951172,975.499756 1427.471924,974.947815 
	C1447.530396,967.667358 1461.230957,954.228821 1467.690674,933.664368 
	C1471.145386,922.665833 1471.961182,911.380493 1470.786133,900.061096 
	C1467.776733,871.072693 1452.696777,851.377441 1424.796509,841.989929 
	C1409.303101,836.776733 1393.230957,835.275879 1377.040161,835.292236 
	C1350.887695,835.318542 1324.735474,835.755981 1298.583496,836.044983 
	C1297.483154,836.057129 1296.385742,836.324036 1295.369873,836.461060 
	C1295.369873,926.996704 1295.369873,1017.211182 1295.369873,1107.554932 
	C1311.268921,1107.554932 1326.842896,1107.554932 1342.933472,1107.554932 
	C1342.933472,1068.388184 1342.933472,1029.497925 1342.933472,990.689026 
	C1366.142212,987.252686 1384.699951,994.270630 1397.873291,1013.175659 
	C1406.004395,1024.844727 1412.177734,1037.877930 1419.606812,1050.947754 
M1557.951172,1087.515259 
	C1563.557251,1072.040161 1569.257935,1056.598267 1574.690063,1041.062378 
	C1575.789185,1037.919189 1577.112549,1036.723999 1580.611816,1036.743408 
	C1610.268066,1036.907349 1639.925903,1036.910156 1669.582153,1036.744019 
	C1673.259399,1036.723389 1674.746948,1037.959473 1675.891235,1041.320190 
	C1682.857056,1061.778564 1690.175049,1082.117310 1697.072144,1102.598267 
	C1698.483765,1106.790161 1700.421631,1108.077148 1704.836304,1107.963501 
	C1718.322876,1107.615967 1731.824341,1107.844482 1745.319946,1107.825806 
	C1746.711792,1107.823975 1748.103394,1107.666382 1749.802612,1107.562134 
	C1749.031860,1105.364746 1748.476685,1103.637207 1747.825195,1101.946655 
	C1739.516235,1080.382202 1731.189697,1058.824707 1722.875122,1037.262573 
	C1697.572632,971.645508 1672.244019,906.038513 1647.057617,840.376953 
	C1645.761597,836.998169 1644.153564,835.880310 1640.593994,835.979309 
	C1631.270874,836.238464 1621.930542,836.248596 1612.608154,835.976685 
	C1608.904541,835.868713 1607.162109,836.903320 1605.773193,840.533386 
	C1572.325073,927.955750 1538.722656,1015.319031 1505.163086,1102.698853 
	C1504.590698,1104.189575 1504.204712,1105.752075 1503.562744,1107.827026 
	C1519.004395,1107.827026 1533.799683,1107.892578 1548.591553,1107.691406 
	C1549.666504,1107.676758 1551.183472,1105.914307 1551.694824,1104.642822 
	C1553.864624,1099.248291 1555.732422,1093.732178 1557.951172,1087.515259 
M469.202209,1031.222046 
	C444.637329,967.465820 420.049469,903.718323 395.579651,839.925659 
	C394.432251,836.934326 392.999115,835.919739 389.825562,835.989624 
	C380.167572,836.202271 370.495178,836.274048 360.842590,835.961731 
	C357.127289,835.841492 355.757568,837.300171 354.528473,840.510559 
	C321.005920,928.073608 287.382507,1015.597961 253.786530,1103.132935 
	C253.240326,1104.556030 252.825867,1106.029541 252.232590,1107.837158 
	C266.764648,1107.837158 280.588837,1107.683228 294.405548,1107.936646 
	C298.249146,1108.007202 299.857483,1106.713623 301.104645,1103.167358 
	C308.384491,1082.467896 316.008087,1061.889404 323.296753,1041.192993 
	C324.499207,1037.778564 326.150787,1036.734375 329.718719,1036.752686 
	C358.872620,1036.902466 388.028595,1036.951904 417.181305,1036.714600 
	C421.604370,1036.678711 423.506866,1037.947388 424.915710,1042.119385 
	C431.882935,1062.751221 439.152252,1083.281616 446.468018,1103.793335 
	C447.025116,1105.355225 448.752197,1107.635498 449.966827,1107.655273 
	C465.910950,1107.915283 481.860718,1107.828247 498.766510,1107.828247 
	C488.837952,1082.055298 479.182068,1056.990112 469.202209,1031.222046 
M1193.500000,836.065186 
	C1162.227173,836.065186 1130.954468,836.065186 1099.478027,836.065186 
	C1099.478027,926.865173 1099.478027,1017.088806 1099.478027,1107.575562 
	C1115.338867,1107.575562 1130.911377,1107.575562 1147.021973,1107.575562 
	C1147.021973,1067.303345 1147.021973,1027.240723 1147.021973,986.654053 
	C1176.462891,986.654053 1205.371948,986.654053 1234.547607,986.654053 
	C1236.552612,974.443420 1238.479736,962.707214 1240.510498,950.339233 
	C1208.990723,950.339233 1178.246338,950.339233 1147.300415,950.339233 
	C1147.300415,924.076965 1147.300415,898.340393 1147.300415,872.058594 
	C1185.122192,872.058594 1222.679565,872.058594 1260.331299,872.058594 
	C1260.331299,859.784912 1260.331299,848.059753 1260.331299,836.065247 
	C1238.140137,836.065247 1216.320068,836.065247 1193.500000,836.065186 
M732.802429,836.086182 
	C732.196106,837.869141 731.061157,839.651489 731.059387,841.435059 
	C730.972656,928.407471 730.983459,1015.379944 730.983459,1102.352417 
	C730.983459,1104.097412 730.983459,1105.842529 730.983459,1107.461060 
	C747.345764,1107.461060 762.913208,1107.461060 778.488525,1107.461060 
	C778.488525,1016.870850 778.488525,926.656982 778.488525,836.069458 
	C763.354736,836.069458 748.553589,836.069458 732.802429,836.086182 
M524.885986,885.500000 
	C524.885986,959.521912 524.885986,1033.543823 524.885986,1107.431396 
	C541.258545,1107.431396 556.803345,1107.431396 572.348755,1107.431396 
	C572.348755,1016.828979 572.348755,926.634460 572.348755,836.352905 
	C556.446289,836.352905 540.874207,836.352905 524.885986,836.352905 
	C524.885986,852.591370 524.885986,868.545715 524.885986,885.500000 
M251.940216,711.416931 
	C251.940216,713.508667 251.940216,715.600464 251.940216,717.713257 
	C366.471313,717.713257 480.319031,717.713257 594.387085,717.713257 
	C594.387085,709.548279 594.387085,701.648804 594.387085,693.596802 
	C480.128662,693.596802 366.166779,693.596802 251.940216,693.596802 
	C251.940216,699.459534 251.940216,704.946777 251.940216,711.416931 
M1725.500000,693.219421 
	C1619.578369,693.219421 1513.656860,693.219421 1407.657959,693.219421 
	C1407.657959,701.857727 1407.657959,709.766724 1407.657959,717.657349 
	C1521.913818,717.657349 1635.828003,717.657349 1749.729370,717.657349 
	C1749.729370,709.428650 1749.729370,701.524109 1749.729370,693.219543 
	C1741.769165,693.219543 1734.134644,693.219543 1725.500000,693.219421 
M1407.330322,752.563293 
	C1407.330322,757.318665 1407.330322,762.074097 1407.330322,766.768066 
	C1521.973999,766.768066 1635.837158,766.768066 1749.693481,766.768066 
	C1749.693481,758.578613 1749.693481,750.700439 1749.693481,742.834106 
	C1635.481567,742.834106 1521.628052,742.834106 1407.330444,742.834106 
	C1407.330444,745.991516 1407.330444,748.791321 1407.330322,752.563293 
M255.814056,742.472107 
	C254.527557,743.263062 252.158661,744.010010 252.124435,744.851868 
	C251.829117,752.114807 251.954575,759.394958 251.954575,766.845825 
	C366.366669,766.845825 480.236755,766.845825 594.323608,766.845825 
	C594.323608,758.736389 594.323608,750.858765 594.323608,742.472168 
	C481.568878,742.472168 369.159637,742.472168 255.814056,742.472107 
z"/>
<path fill="#A62B6D" opacity="1.000000" stroke="none" 
	d="
M1363.220215,418.211731 
	C1342.821045,443.556458 1315.872925,458.146362 1285.937988,467.931824 
	C1251.140869,479.306641 1215.127563,483.425079 1178.762573,484.938232 
	C1126.204956,487.125183 1073.889648,483.473267 1021.617676,478.318207 
	C1006.566223,476.833832 991.360474,476.794342 976.217590,476.384094 
	C952.735596,475.747894 929.245422,474.889557 905.761292,474.961700 
	C844.026672,475.151367 788.891357,495.053131 739.665161,531.898926 
	C731.934631,537.685242 723.775146,543.167725 717.154541,550.075439 
	C712.538696,554.891357 708.705688,561.541321 707.160156,568.002808 
	C703.302551,584.129517 700.613037,600.564270 698.086365,616.972656 
	C695.557617,633.395142 694.956116,650.146790 689.229370,665.982605 
	C680.526917,690.047119 663.170410,706.573669 642.105164,719.801514 
	C636.790039,723.139099 631.268311,726.147644 625.061768,729.761353 
	C628.319580,714.995789 631.453918,701.259949 634.370117,687.478027 
	C640.996399,656.162231 645.616028,624.570740 647.127197,592.561707 
	C647.347107,587.903870 647.747803,583.252075 648.163757,578.606445 
	C649.146851,567.628418 654.136902,558.706238 662.080383,551.209045 
	C687.420837,527.292419 715.371948,507.065643 746.202759,490.760162 
	C795.320740,464.783173 847.535095,447.153107 901.049072,433.047760 
	C935.802429,423.887329 970.753906,415.450500 1006.424622,410.706055 
	C1034.466309,406.976318 1062.580200,403.656586 1090.740479,400.978363 
	C1166.486450,393.774445 1242.449341,393.052277 1318.453979,394.407501 
	C1337.759155,394.751740 1357.056641,395.527740 1377.900146,396.151520 
	C1372.719849,403.956604 1368.081421,410.945343 1363.220215,418.211731 
z"/>
<path fill="#A62B6D" opacity="1.000000" stroke="none" 
	d="
M1017.000061,836.068848 
	C1025.804932,836.068848 1034.109985,836.068848 1042.745361,836.068848 
	C1042.745361,926.793518 1042.745361,1017.173523 1042.745361,1108.070557 
	C1030.189453,1108.070557 1017.739014,1108.186646 1005.297180,1107.913086 
	C1003.856567,1107.881470 1002.064331,1105.943359 1001.107117,1104.456543 
	C979.386353,1070.716187 957.718201,1036.941650 936.127441,1003.117859 
	C918.210205,975.049133 900.406311,946.908142 882.545654,918.803284 
	C881.594543,917.306641 880.583130,915.848389 879.133118,914.468506 
	C883.996094,978.625183 880.704346,1042.831299 882.988892,1107.395142 
	C866.791321,1107.395142 851.110229,1107.395142 835.180359,1107.395142 
	C835.180359,1016.857117 835.180359,926.414490 835.180359,835.229065 
	C842.445679,835.229065 849.813660,836.005127 856.950317,835.051025 
	C868.271362,833.537537 874.583252,838.084167 880.775574,847.593323 
	C918.483887,905.499390 956.955627,962.908325 995.177002,1020.480164 
	C996.086975,1021.850830 997.047913,1023.187561 997.603455,1023.989441 
	C996.771790,961.871826 995.934082,899.305420 995.087402,836.068787 
	C1002.635498,836.068787 1009.567810,836.068787 1017.000061,836.068848 
z"/>
<path fill="#A62B6D" opacity="1.000000" stroke="none" 
	d="
M1307.522461,490.575562 
	C1277.774170,525.510498 1241.056519,550.173340 1197.683472,564.977478 
	C1166.731445,575.542114 1134.752197,580.361023 1102.194702,582.148987 
	C1059.318359,584.503540 1016.649231,581.167786 973.918518,578.406860 
	C933.045715,575.766052 892.122742,573.133301 851.188843,572.435730 
	C814.930359,571.817810 779.071594,576.614807 744.968445,590.167969 
	C736.640320,593.477783 728.623901,597.571777 719.793335,601.612122 
	C720.429321,599.976562 720.901611,598.565369 721.513367,597.217529 
	C739.103027,558.466431 769.010193,533.844360 809.115906,520.978088 
	C841.191711,510.687897 874.317566,507.370667 907.718445,508.069733 
	C945.669312,508.864014 983.586731,511.193268 1021.523621,512.734741 
	C1064.953613,514.499268 1108.383301,517.293579 1151.823608,517.503540 
	C1197.917969,517.726379 1243.535156,512.231689 1287.460938,496.946808 
	C1293.736572,494.763062 1299.897095,492.248505 1306.646484,490.051025 
	C1307.181885,490.215027 1307.522461,490.575562 1307.522461,490.575562 
z"/>
<path fill="#A72B6D" opacity="1.000000" stroke="none" 
	d="
M1419.418335,1050.623291 
	C1412.177734,1037.877930 1406.004395,1024.844727 1397.873291,1013.175659 
	C1384.699951,994.270630 1366.142212,987.252686 1342.933472,990.689026 
	C1342.933472,1029.497925 1342.933472,1068.388184 1342.933472,1107.554932 
	C1326.842896,1107.554932 1311.268921,1107.554932 1295.369873,1107.554932 
	C1295.369873,1017.211182 1295.369873,926.996704 1295.369873,836.461060 
	C1296.385742,836.324036 1297.483154,836.057129 1298.583496,836.044983 
	C1324.735474,835.755981 1350.887695,835.318542 1377.040161,835.292236 
	C1393.230957,835.275879 1409.303101,836.776733 1424.796509,841.989929 
	C1452.696777,851.377441 1467.776733,871.072693 1470.786133,900.061096 
	C1471.961182,911.380493 1471.145386,922.665833 1467.690674,933.664368 
	C1461.230957,954.228821 1447.530396,967.667358 1427.471924,974.947815 
	C1425.951172,975.499756 1424.432251,976.056885 1422.962769,976.593323 
	C1423.072998,977.186401 1423.024536,977.638184 1423.196777,977.749939 
	C1440.372681,988.899780 1450.919556,1005.555725 1459.283936,1023.412415 
	C1471.973999,1050.503784 1483.526733,1078.128296 1495.541626,1105.535400 
	C1495.786011,1106.092896 1495.772827,1106.763184 1495.956299,1107.823486 
	C1479.366699,1107.823486 1463.082153,1107.911987 1446.803101,1107.652222 
	C1445.529053,1107.631958 1443.819824,1105.393311 1443.113037,1103.825195 
	C1435.187012,1086.240234 1427.418091,1068.584473 1419.418335,1050.623291 
M1384.661621,870.707458 
	C1370.925415,870.050598 1357.189087,869.393799 1343.288330,868.729126 
	C1343.288330,898.213257 1343.288330,926.573730 1343.288330,954.914551 
	C1356.474243,954.914551 1369.323975,955.531738 1382.092896,954.779846 
	C1405.226807,953.417419 1418.876465,940.973694 1420.402954,919.306885 
	C1422.116333,894.987732 1411.982178,875.858398 1384.661621,870.707458 
z"/>
<path fill="#A72C6D" opacity="1.000000" stroke="none" 
	d="
M1557.830811,1087.887939 
	C1555.732422,1093.732178 1553.864624,1099.248291 1551.694824,1104.642822 
	C1551.183472,1105.914307 1549.666504,1107.676758 1548.591553,1107.691406 
	C1533.799683,1107.892578 1519.004395,1107.827026 1503.562744,1107.827026 
	C1504.204712,1105.752075 1504.590698,1104.189575 1505.163086,1102.698853 
	C1538.722656,1015.319031 1572.325073,927.955750 1605.773193,840.533386 
	C1607.162109,836.903320 1608.904541,835.868713 1612.608154,835.976685 
	C1621.930542,836.248596 1631.270874,836.238464 1640.593994,835.979309 
	C1644.153564,835.880310 1645.761597,836.998169 1647.057617,840.376953 
	C1672.244019,906.038513 1697.572632,971.645508 1722.875122,1037.262573 
	C1731.189697,1058.824707 1739.516235,1080.382202 1747.825195,1101.946655 
	C1748.476685,1103.637207 1749.031860,1105.364746 1749.802612,1107.562134 
	C1748.103394,1107.666382 1746.711792,1107.823975 1745.319946,1107.825806 
	C1731.824341,1107.844482 1718.322876,1107.615967 1704.836304,1107.963501 
	C1700.421631,1108.077148 1698.483765,1106.790161 1697.072144,1102.598267 
	C1690.175049,1082.117310 1682.857056,1061.778564 1675.891235,1041.320190 
	C1674.746948,1037.959473 1673.259399,1036.723389 1669.582153,1036.744019 
	C1639.925903,1036.910156 1610.268066,1036.907349 1580.611816,1036.743408 
	C1577.112549,1036.723999 1575.789185,1037.919189 1574.690063,1041.062378 
	C1569.257935,1056.598267 1563.557251,1072.040161 1557.830811,1087.887939 
M1653.254028,977.245483 
	C1644.012695,948.458069 1634.771240,919.670654 1625.516357,890.840942 
	C1613.582275,927.581604 1601.700195,964.162720 1589.744873,1000.969116 
	C1613.769775,1000.969116 1637.326172,1000.969116 1661.480957,1000.969116 
	C1658.737793,992.989868 1656.155762,985.479553 1653.254028,977.245483 
z"/>
<path fill="#A72C6D" opacity="1.000000" stroke="none" 
	d="
M469.364197,1031.573486 
	C479.182068,1056.990112 488.837952,1082.055298 498.766510,1107.828247 
	C481.860718,1107.828247 465.910950,1107.915283 449.966827,1107.655273 
	C448.752197,1107.635498 447.025116,1105.355225 446.468018,1103.793335 
	C439.152252,1083.281616 431.882935,1062.751221 424.915710,1042.119385 
	C423.506866,1037.947388 421.604370,1036.678711 417.181305,1036.714600 
	C388.028595,1036.951904 358.872620,1036.902466 329.718719,1036.752686 
	C326.150787,1036.734375 324.499207,1037.778564 323.296753,1041.192993 
	C316.008087,1061.889404 308.384491,1082.467896 301.104645,1103.167358 
	C299.857483,1106.713623 298.249146,1108.007202 294.405548,1107.936646 
	C280.588837,1107.683228 266.764648,1107.837158 252.232590,1107.837158 
	C252.825867,1106.029541 253.240326,1104.556030 253.786530,1103.132935 
	C287.382507,1015.597961 321.005920,928.073608 354.528473,840.510559 
	C355.757568,837.300171 357.127289,835.841492 360.842590,835.961731 
	C370.495178,836.274048 380.167572,836.202271 389.825562,835.989624 
	C392.999115,835.919739 394.432251,836.934326 395.579651,839.925659 
	C420.049469,903.718323 444.637329,967.465820 469.364197,1031.573486 
M397.485107,1001.294495 
	C401.572327,1001.294495 405.659515,1001.294495 409.782776,1001.294495 
	C397.800079,964.100891 386.010223,927.505859 374.229279,890.938538 
	C362.356476,927.463684 350.425385,964.168091 338.357056,1001.294739 
	C357.914124,1001.294739 377.201447,1001.294739 397.485107,1001.294495 
z"/>
<path fill="#A62B6D" opacity="1.000000" stroke="none" 
	d="
M1265.104736,566.095398 
	C1252.963135,581.056702 1241.750854,596.903503 1228.499756,610.807373 
	C1193.637451,647.387024 1150.998779,669.929932 1100.819824,677.592468 
	C1076.157349,681.358582 1051.387085,681.510071 1026.559082,679.480652 
	C979.158447,675.606262 932.895325,664.829590 886.226807,656.500977 
	C852.101501,650.410889 817.873352,645.217773 783.042358,645.982788 
	C759.269409,646.504883 735.953918,649.744019 713.403381,657.593018 
	C712.807739,657.800293 712.161499,657.862061 710.514282,657.134277 
	C714.565552,651.467773 718.244995,645.485901 722.735168,640.191650 
	C738.577454,621.512390 759.633728,612.325806 783.178589,608.028992 
	C810.980286,602.955261 838.962341,604.168945 866.880615,606.404602 
	C919.163025,610.591309 971.338684,616.595398 1023.690063,619.315002 
	C1091.719849,622.849060 1158.386841,614.585571 1221.526611,586.995239 
	C1235.975952,580.681274 1249.766113,572.859009 1264.331665,565.768738 
	C1264.803711,565.806519 1265.104736,566.095398 1265.104736,566.095398 
z"/>
<path fill="#A72C6E" opacity="1.000000" stroke="none" 
	d="
M1194.000000,836.065186 
	C1216.320068,836.065247 1238.140137,836.065247 1260.331299,836.065247 
	C1260.331299,848.059753 1260.331299,859.784912 1260.331299,872.058594 
	C1222.679565,872.058594 1185.122192,872.058594 1147.300415,872.058594 
	C1147.300415,898.340393 1147.300415,924.076965 1147.300415,950.339233 
	C1178.246338,950.339233 1208.990723,950.339233 1240.510498,950.339233 
	C1238.479736,962.707214 1236.552612,974.443420 1234.547607,986.654053 
	C1205.371948,986.654053 1176.462891,986.654053 1147.021973,986.654053 
	C1147.021973,1027.240723 1147.021973,1067.303345 1147.021973,1107.575562 
	C1130.911377,1107.575562 1115.338867,1107.575562 1099.478027,1107.575562 
	C1099.478027,1017.088806 1099.478027,926.865173 1099.478027,836.065186 
	C1130.954468,836.065186 1162.227173,836.065186 1194.000000,836.065186 
z"/>
<path fill="#A72B6D" opacity="1.000000" stroke="none" 
	d="
M1136.957520,695.964600 
	C1129.422974,702.678711 1122.180908,709.759827 1114.301636,716.041565 
	C1084.560791,739.752136 1051.891846,757.701660 1014.402649,766.067688 
	C977.117371,774.388123 940.353333,771.289185 903.816345,761.615356 
	C871.919189,753.169983 841.646118,740.218567 810.973938,728.353699 
	C789.113586,719.897583 767.166504,711.664429 743.690552,708.623047 
	C718.470825,705.355591 695.358582,710.068970 674.694580,726.224670 
	C674.091980,726.088013 673.959290,725.968506 673.826599,725.848938 
	C686.472351,698.100647 706.739685,679.776245 737.609253,675.078979 
	C761.239014,671.483459 784.513855,674.912781 807.380310,680.612488 
	C840.128540,688.775330 872.654602,697.824890 905.334534,706.267700 
	C943.804749,716.206543 982.720276,723.360779 1022.655396,722.825989 
	C1061.813965,722.301636 1099.229004,714.022034 1134.465576,696.608459 
	C1135.056152,696.316528 1135.694946,696.122070 1136.658936,695.945374 
	C1137.006836,696.008606 1136.957520,695.964600 1136.957520,695.964600 
z"/>
<path fill="#A72C6D" opacity="1.000000" stroke="none" 
	d="
M733.277466,836.077820 
	C748.553589,836.069458 763.354736,836.069458 778.488525,836.069458 
	C778.488525,926.656982 778.488525,1016.870850 778.488525,1107.461060 
	C762.913208,1107.461060 747.345764,1107.461060 730.983459,1107.461060 
	C730.983459,1105.842529 730.983459,1104.097412 730.983459,1102.352417 
	C730.983459,1015.379944 730.972656,928.407471 731.059387,841.435059 
	C731.061157,839.651489 732.196106,837.869141 733.277466,836.077820 
z"/>
<path fill="#A72C6D" opacity="1.000000" stroke="none" 
	d="
M524.885986,885.000000 
	C524.885986,868.545715 524.885986,852.591370 524.885986,836.352905 
	C540.874207,836.352905 556.446289,836.352905 572.348755,836.352905 
	C572.348755,926.634460 572.348755,1016.828979 572.348755,1107.431396 
	C556.803345,1107.431396 541.258545,1107.431396 524.885986,1107.431396 
	C524.885986,1033.543823 524.885986,959.521912 524.885986,885.000000 
z"/>
<path fill="#A72E6E" opacity="1.000000" stroke="none" 
	d="
M251.940216,710.925415 
	C251.940216,704.946777 251.940216,699.459534 251.940216,693.596802 
	C366.166779,693.596802 480.128662,693.596802 594.387085,693.596802 
	C594.387085,701.648804 594.387085,709.548279 594.387085,717.713257 
	C480.319031,717.713257 366.471313,717.713257 251.940216,717.713257 
	C251.940216,715.600464 251.940216,713.508667 251.940216,710.925415 
z"/>
<path fill="#A72E6E" opacity="1.000000" stroke="none" 
	d="
M1726.000000,693.219482 
	C1734.134644,693.219543 1741.769165,693.219543 1749.729370,693.219543 
	C1749.729370,701.524109 1749.729370,709.428650 1749.729370,717.657349 
	C1635.828003,717.657349 1521.913818,717.657349 1407.657959,717.657349 
	C1407.657959,709.766724 1407.657959,701.857727 1407.657959,693.219421 
	C1513.656860,693.219421 1619.578369,693.219421 1726.000000,693.219482 
z"/>
<path fill="#A62A6C" opacity="1.000000" stroke="none" 
	d="
M1407.330322,752.077209 
	C1407.330444,748.791321 1407.330444,745.991516 1407.330444,742.834106 
	C1521.628052,742.834106 1635.481567,742.834106 1749.693481,742.834106 
	C1749.693481,750.700439 1749.693481,758.578613 1749.693481,766.768066 
	C1635.837158,766.768066 1521.973999,766.768066 1407.330322,766.768066 
	C1407.330322,762.074097 1407.330322,757.318665 1407.330322,752.077209 
z"/>
<path fill="#A62A6C" opacity="1.000000" stroke="none" 
	d="
M256.282227,742.472168 
	C369.159637,742.472168 481.568878,742.472168 594.323608,742.472168 
	C594.323608,750.858765 594.323608,758.736389 594.323608,766.845825 
	C480.236755,766.845825 366.366669,766.845825 251.954575,766.845825 
	C251.954575,759.394958 251.829117,752.114807 252.124435,744.851868 
	C252.158661,744.010010 254.527557,743.263062 256.282227,742.472168 
z"/>
<path fill="#A62B6D" opacity="1.000000" stroke="none" 
	d="
M1307.020142,490.026978 
	C1307.329956,489.655670 1307.801392,489.472382 1308.272949,489.289062 
	C1308.152954,489.612305 1308.032959,489.935547 1307.717773,490.417175 
	C1307.522461,490.575562 1307.181885,490.215027 1307.020142,490.026978 
z"/>
<path fill="#A72B6D" opacity="1.000000" stroke="none" 
	d="
M674.409424,726.401489 
	C674.159302,726.840515 673.724365,727.085632 673.289490,727.330688 
	C673.317383,726.924683 673.345276,726.518555 673.599854,725.980713 
	C673.959290,725.968506 674.091980,726.088013 674.409424,726.401489 
z"/>
<path fill="#A72B6D" opacity="1.000000" stroke="none" 
	d="
M1137.031250,696.030884 
	C1137.106445,695.824951 1137.142334,695.591003 1137.222778,695.373596 
	C1137.236816,695.335693 1137.438110,695.367004 1137.552979,695.366333 
	C1137.527344,695.557312 1137.501831,695.748230 1137.216797,695.951904 
	C1136.957520,695.964600 1137.006836,696.008606 1137.031250,696.030884 
z"/>
<path fill="#A62B6D" opacity="1.000000" stroke="none" 
	d="
M1264.661743,565.653687 
	C1264.872803,565.404419 1265.225708,565.308044 1265.578735,565.211670 
	C1265.582031,565.443054 1265.585327,565.674438 1265.346680,566.000610 
	C1265.104736,566.095398 1264.803711,565.806519 1264.661743,565.653687 
z"/>
<path fill="#FFFEFE" opacity="1.000000" stroke="none" 
	d="
M1385.084717,870.790894 
	C1411.982178,875.858398 1422.116333,894.987732 1420.402954,919.306885 
	C1418.876465,940.973694 1405.226807,953.417419 1382.092896,954.779846 
	C1369.323975,955.531738 1356.474243,954.914551 1343.288330,954.914551 
	C1343.288330,926.573730 1343.288330,898.213257 1343.288330,868.729126 
	C1357.189087,869.393799 1370.925415,870.050598 1385.084717,870.790894 
z"/>
<path fill="#FEFDFE" opacity="1.000000" stroke="none" 
	d="
M1653.413940,977.607422 
	C1656.155762,985.479553 1658.737793,992.989868 1661.480957,1000.969116 
	C1637.326172,1000.969116 1613.769775,1000.969116 1589.744873,1000.969116 
	C1601.700195,964.162720 1613.582275,927.581604 1625.516357,890.840942 
	C1634.771240,919.670654 1644.012695,948.458069 1653.413940,977.607422 
z"/>
<path fill="#FEFDFE" opacity="1.000000" stroke="none" 
	d="
M396.986938,1001.294617 
	C377.201447,1001.294739 357.914124,1001.294739 338.357056,1001.294739 
	C350.425385,964.168091 362.356476,927.463684 374.229279,890.938538 
	C386.010223,927.505859 397.800079,964.100891 409.782776,1001.294495 
	C405.659515,1001.294495 401.572327,1001.294495 396.986938,1001.294617 
z"/>
</svg>